<?xml version="1.0" encoding="utf-8"?>
<!-- Generator: Adobe Illustrator 19.0.1, SVG Export Plug-In . SVG Version: 6.00 Build 0)  -->
<svg version="1.1" id="Layer_1" xmlns="http://www.w3.org/2000/svg" xmlns:xlink="http://www.w3.org/1999/xlink" x="0px" y="0px"
	 viewBox="0 0 43.6 50" style="enable-background:new 0 0 43.6 50;" xml:space="preserve">
<g>
	<path d="M28.4,1.3c-0.6,0-1,0.5-1,1v8.3c0,0,0,0,0,0c-0.1,0.5-0.6,0.8-1.2,0.8c-0.6,0-1.2-0.4-1.2-0.9h0V2.4c0-0.6-0.5-1-1-1
		c-0.6,0-1,0.5-1,1v8.2h0c-0.1,0.5-0.6,0.9-1.2,0.9c-0.6,0-1.1-0.4-1.2-0.8c0,0,0,0,0,0V2.4c0-0.6-0.5-1-1-1c-0.6,0-1,0.5-1,1v10.2
		c0,0,0,0,0,0c0,0,0,0,0,0.1v3c0,1.5,1.7,3.8,3.2,4v27.8c0,1.3,1.1,2.4,2.4,2.4c1.3,0,2.4-1.1,2.4-2.4V19.6c1.5-0.2,3.2-2.5,3.2-4
		v-3c0,0,0,0,0-0.1c0,0,0,0,0,0V2.4C29.4,1.8,28.9,1.3,28.4,1.3z"/>
	<path d="M7,0C3.1,0,0,6.7,0,10.5c0,3.1,2,5.7,4.7,6.6v30c0,1.6,1.1,2.9,2.5,2.9c1.4,0,2.5-1.3,2.5-2.9V17c2.5-1.1,4.3-3.6,4.3-6.5
		C14,6.7,10.9,0,7,0z"/>
	<path d="M43.6,22.1L41.8,4.2c-0.2-2.5-1.2-3.7-3.3-3.7c-2.1,0-2.3,1.9-2.3,4.3v15.3c0,0.3,0,0.5,0.1,0.8v26.3
		c0,1.6,1.1,2.9,2.5,2.9c1.4,0,2.5-1.3,2.5-2.9V24.3C42.6,24.2,43.6,23.9,43.6,22.1z"/>
</g>
</svg>
