<?xml version="1.0" encoding="utf-8"?>
<!-- Generator: Adobe Illustrator 19.0.1, SVG Export Plug-In . SVG Version: 6.00 Build 0)  -->
<svg version="1.1" id="Layer_1" xmlns="http://www.w3.org/2000/svg" xmlns:xlink="http://www.w3.org/1999/xlink" x="0px" y="0px"
	 viewBox="0 0 28 50" style="enable-background:new 0 0 28 50;" xml:space="preserve">
<path d="M26.3,46.5H15.7V35.7c5-3.7,8.2-6.4,9.5-8.2c2.5-3.3,3.3-7.8,2.3-13.6c-0.8-4.4-2.4-12.2-2.5-12.5C24.9,0.6,24.2,0,23.4,0
	H4.6C3.8,0,3.1,0.6,2.9,1.4C2.8,1.7,1.2,9.5,0.4,13.9c-1,5.7-0.2,10.3,2.3,13.6c1.4,1.8,4.5,4.5,9.5,8.2v10.8H1.7
	c-1,0-1.7,0.8-1.7,1.7c0,1,0.8,1.7,1.7,1.7h24.5c1,0,1.7-0.8,1.7-1.7C28,47.3,27.2,46.5,26.3,46.5z M6,3.5H22
	c0.5,2.5,1.6,7.8,2.2,11c0.1,0.6,0.2,1.2,0.2,1.8H3.6c0.1-0.6,0.1-1.2,0.2-1.8C4.4,11.3,5.5,6,6,3.5z"/>
</svg>
