<?xml version="1.0" encoding="utf-8"?>
<!-- Generator: Adobe Illustrator 19.0.1, SVG Export Plug-In . SVG Version: 6.00 Build 0)  -->
<svg version="1.1" id="Layer_1" xmlns="http://www.w3.org/2000/svg" xmlns:xlink="http://www.w3.org/1999/xlink" x="0px" y="0px"
	 viewBox="0 0 50 50" style="enable-background:new 0 0 50 50;" xml:space="preserve">
<style type="text/css">
	.st0{fill:#FBEAA5;}
</style>
<g>
	<path class="st0" d="M25,15.6c-5.1,0-9.3,4.2-9.3,9.3s4.2,9.3,9.3,9.3s9.3-4.2,9.3-9.3S30.1,15.6,25,15.6z M25,30.3
		c-2.9,0-5.3-2.4-5.3-5.3s2.4-5.3,5.3-5.3s5.3,2.4,5.3,5.3S27.9,30.3,25,30.3z"/>
	<path class="st0" d="M48,23h-9c-1.1,0-2,0.9-2,2s0.9,2,2,2h9c1.1,0,2-0.9,2-2S49.1,23,48,23z"/>
	<path class="st0" d="M13,25c0-1.1-0.9-2-2-2H2c-1.1,0-2,0.9-2,2s0.9,2,2,2h9C12.1,27,13,26.1,13,25z"/>
	<path class="st0" d="M25,13c1.1,0,2-0.9,2-2V2c0-1.1-0.9-2-2-2s-2,0.9-2,2v9C23,12.1,23.9,13,25,13z"/>
	<path class="st0" d="M25,37c-1.1,0-2,0.9-2,2v9c0,1.1,0.9,2,2,2s2-0.9,2-2v-9C27,37.9,26.1,37,25,37z"/>
	<path class="st0" d="M35.2,16.8c0.5,0,1-0.2,1.4-0.6L43,9.8c0.8-0.8,0.8-2,0-2.8s-2-0.8-2.8,0l-6.4,6.4c-0.8,0.8-0.8,2,0,2.8
		C34.1,16.6,34.7,16.8,35.2,16.8z"/>
	<path class="st0" d="M13.4,33.8L7,40.2c-0.8,0.8-0.8,2,0,2.8c0.4,0.4,0.9,0.6,1.4,0.6s1-0.2,1.4-0.6l6.4-6.4c0.8-0.8,0.8-2,0-2.8
		C15.5,33,14.2,33,13.4,33.8z"/>
	<path class="st0" d="M36.6,33.8c-0.8-0.8-2-0.8-2.8,0s-0.8,2,0,2.8l6.4,6.4c0.4,0.4,0.9,0.6,1.4,0.6s1-0.2,1.4-0.6
		c0.8-0.8,0.8-2,0-2.8L36.6,33.8z"/>
	<path class="st0" d="M13.4,16.2c0.4,0.4,0.9,0.6,1.4,0.6s1-0.2,1.4-0.6c0.8-0.8,0.8-2,0-2.8L9.8,7C9.1,6.3,7.8,6.3,7,7
		C6.2,7.8,6.2,9,7,9.8L13.4,16.2z"/>
</g>
</svg>
